PathFileType	4	(X/Y/Z)	D:\Share\Shared_Data\Ergonomics\Sit To Stand Pertubation\S1\Perturbed_NoHarness.trc
DataRate	CameraRate	NumFrames	NumMarkers	Units	OrigDataRate	OrigDataStartFrame	OrigNumFrames	
100	100	11	18	m	100	8571	221
Frame#	Time	L_ASIS			R_ASIS			R_Pelvis			V_Sacral			L_Pelvis			Clavical			R_Acromium			L_Acromium			Sternum			Torso			R_Thigh_Med			R_Thigh_Lat			R_Thigh			R_Shank_Med			R_Shank_Lat			R_Shank			R_Heel			R_Toe			
		X1	Y1	Z1	X2	Y2	Z2	X3	Y3	Z3	X4	Y4	Z4	X5	Y5	Z5	X6	Y6	Z6	X7	Y7	Z7	X8	Y8	Z8	X9	Y9	Z9	X10	Y10	Z10	X11	Y11	Z11	X12	Y12	Z12	X13	Y13	Z13	X14	Y14	Z14	X15	Y15	Z15	X16	Y16	Z16	X17	Y17	Z17	X18	Y18	Z18	

8571	85.7	0.33271851	0.82785345	-0.085897629	0.22743369	0.8360152	0.14583316	0.28300443	0.81445715	0.13138008	0.12609749	0.82329785	0.00013600259	0.24444121	0.83973926	-0.13295569	0.42956018	1.1459753	0.014014812	0.38637173	1.2355992	0.15951341	0.33788538	1.2078148	-0.18631573	0.41581863	1.164842	0.11453232	0.42609677	1.1556893	-0.041702686	0.4060983	0.40467285	0.027453817	0.42678442	0.4276698	0.14642596	0.40152982	0.6065462	0.10185534	0.34769919	0.091630547	0.093925026	0.32547028	0.09936525	0.17444102	0.38116183	0.30359445	0.17505614	0.27157156	0.03291264	0.12536073	0.47620966	0.047420727	0.14031204
8572	85.71	0.33698877	0.83431946	-0.086389076	0.23155414	0.8412077	0.14568111	0.28375684	0.82009662	0.13405644	0.1311701	0.82901794	-0.0002555595	0.24874496	0.84557837	-0.13461575	0.42902307	1.1541011	0.014011238	0.38477209	1.2429943	0.15961334	0.33708588	1.2145968	-0.18582874	0.41509283	1.1727042	0.11465293	0.42558408	1.1637378	-0.04179673	0.40405411	0.40534909	0.028001835	0.42520172	0.42838834	0.14691194	0.40343716	0.6079176	0.10166251	0.34744174	0.091888939	0.094090637	0.32518826	0.099404503	0.17461801	0.37976147	0.30396561	0.17558765	0.27154031	0.032922783	0.12540217	0.47603766	0.047821045	0.14049944
8573	85.72	0.34122525	0.84058282	-0.086922195	0.23562465	0.84624432	0.14551909	0.284703	0.82555457	0.13651273	0.13621893	0.83453455	-0.00065593022	0.2530114	0.85123419	-0.13642491	0.42850034	1.161926	0.013999089	0.383189	1.2500791	0.15969832	0.33629745	1.2210833	-0.18537733	0.41439178	1.18027	0.11475777	0.42509842	1.171494	-0.041906204	0.40189056	0.40604291	0.028592588	0.42348599	0.42912589	0.14744539	0.40525049	0.60920563	0.10153561	0.34717322	0.092162544	0.094264488	0.32489716	0.099443024	0.17480449	0.37828696	0.30434824	0.17615154	0.2715087	0.03293837	0.12544473	0.47587476	0.048209583	0.14068643
8574	85.73	0.34542599	0.84662622	-0.087501411	0.23967973	0.85111584	0.14533798	0.28595609	0.83084766	0.13865231	0.14123865	0.8398399	-0.0010678095	0.25724609	0.85668414	-0.13833078	0.42799341	1.1694438	0.013975543	0.38162134	1.2568434	0.15976813	0.33550708	1.2272698	-0.18498433	0.41371759	1.1875289	0.11484417	0.42464154	1.1789493	-0.042033249	0.39961414	0.40674905	0.029221472	0.42164532	0.42987787	0.14802316	0.40697397	0.61039813	0.10147029	0.34689569	0.092449516	0.094445602	0.32459909	0.099480515	0.17499911	0.37674445	0.30473929	0.17674414	0.27147656	0.032959259	0.12548728	0.47572806	0.048569447	0.14086711
8575	85.74	0.34959006	0.85243396	-0.088129341	0.24376881	0.85581195	0.1451223	0.28760367	0.83599982	0.14040074	0.14622362	0.84492816	-0.0014946636	0.26145441	0.86190717	-0.14028049	0.42750433	1.1766473	0.013937877	0.38006866	1.2632771	0.15982227	0.33470673	1.2331531	-0.18466798	0.41307187	1.1944709	0.11490958	0.42421527	1.1860953	-0.042179802	0.39723148	0.4074621	0.029882793	0.41968869	0.4306395	0.14864088	0.40861124	0.61148676	0.10146113	0.34661139	0.092747772	0.09463295	0.32429599	0.099516785	0.17520027	0.37514066	0.30513583	0.17736101	0.27144403	0.032984898	0.1255284	0.47560431	0.048884262	0.14103589
8576	85.75	0.35371747	0.85799231	-0.088805824	0.2479563	0.86032159	0.14484959	0.28970132	0.84103931	0.14171089	0.15116812	0.84979449	-0.001940104	0.26564072	0.86688464	-0.14222346	0.42703552	1.1835289	0.013883547	0.37853171	1.2693718	0.15986006	0.33389319	1.2387314	-0.18444133	0.41245547	1.2010869	0.11495164	0.42382114	1.1929233	-0.042347569	0.39475009	0.40817636	0.030570194	0.41762607	0.43140579	0.14929338	0.41016531	0.61246686	0.10150194	0.34632242	0.093055038	0.094825401	0.3239899	0.099551682	0.17540616	0.37348264	0.30553503	0.17799695	0.27141101	0.033014198	0.12556633	0.47550925	0.049139698	0.1411879
8577	85.76	0.35780869	0.86328839	-0.089527054	0.25232034	0.86463202	0.14449048	0.29226923	0.84599567	0.14256529	0.15606612	0.85443488	-0.0024072876	0.26980823	0.87159998	-0.1441134	0.42658978	1.1900812	0.01381023	0.37701242	1.2751206	0.15988055	0.33306805	1.2440031	-0.18431155	0.41186908	1.2073678	0.1149682	0.42346069	1.1994246	-0.042537987	0.39217844	0.40888632	0.03127722	0.41546805	0.43217151	0.14997455	0.41163882	0.61333765	0.10158611	0.34603085	0.093368942	0.095021736	0.32368256	0.099585037	0.17561494	0.3717778	0.30593427	0.17864612	0.27137753	0.033045502	0.12559907	0.47544727	0.049324883	0.14131946
8578	85.77	0.36186432	0.86831061	-0.090285088	0.2569494	0.86872876	0.14400935	0.29529272	0.850896	0.14297554	0.16091138	0.85884515	-0.0028984246	0.27395856	0.87603986	-0.14590988	0.42617032	1.1962966	0.01371583	0.3755144	1.2805175	0.15988266	0.3322366	1.2489667	-0.18428053	0.41131311	1.2133053	0.11495731	0.42313531	1.2055908	-0.042752209	0.38952673	0.40958643	0.031998106	0.4132261	0.43293158	0.15067805	0.41303403	0.61410071	0.10170685	0.34573853	0.093686966	0.095220772	0.32337546	0.099616676	0.17582483	0.37003366	0.30633087	0.17930246	0.27134366	0.033076572	0.12562448	0.47542065	0.04943338	0.1414283
8579	85.78	0.3658848	0.87304755	-0.091067604	0.2619371	0.8725957	0.1433662	0.29872513	0.85576117	0.14297926	0.16569754	0.86302161	-0.0034144564	0.27809158	0.88019379	-0.14757919	0.4257803	1.2021688	0.013598461	0.37404279	1.2855586	0.15986508	0.33140701	1.25362	-0.18434517	0.41078809	1.2188925	0.11491718	0.42284607	1.2114148	-0.042991146	0.3868071	0.41027133	0.032728626	0.4109122	0.43368076	0.15139735	0.41435306	0.61476025	0.10185748	0.34544678	0.094006653	0.095421371	0.32306982	0.099646355	0.17603409	0.3682579	0.3067225	0.17995996	0.27130942	0.033104671	0.1256404	0.47542966	0.049463623	0.14151361
8580	85.79	0.36986969	0.87748773	-0.091858513	0.26737524	0.876216	0.14251942	0.30249347	0.86060175	0.14263506	0.17041814	0.8669599	-0.0039549279	0.28220526	0.88405463	-0.14909511	0.42542303	1.2076913	0.013456409	0.37260394	1.2902415	0.15982626	0.33058893	1.2579608	-0.18449857	0.41029437	1.2241234	0.11484623	0.42259372	1.21689	-0.043255516	0.38403397	0.41093613	0.033466976	0.40853854	0.434414	0.15212643	0.41559802	0.61532159	0.10203178	0.34515649	0.094325554	0.095622498	0.32276636	0.099673721	0.17624123	0.36645819	0.30710672	0.18061305	0.27127502	0.033126713	0.12564484	0.47547253	0.049418694	0.14157597
8581	85.8	0.37381729	0.88161993	-0.092638969	0.27334476	0.8795722	0.1414296	0.30650592	0.86541565	0.14201596	0.17506677	0.87065625	-0.0045180507	0.28629614	0.88761835	-0.15043872	0.42510144	1.2128596	0.013288096	0.37120578	1.2945663	0.15976463	0.32979263	1.2619868	-0.18473091	0.4098327	1.2289937	0.11474304	0.42237851	1.2220109	-0.043545853	0.38122449	0.41157605	0.034214493	0.40611752	0.4351265	0.15286008	0.41677139	0.6157901	0.10222423	0.34486798	0.094641426	0.095823265	0.32246552	0.099698364	0.1764449	0.36464175	0.30748135	0.18125696	0.27124069	0.033139481	0.12563616	0.47554572	0.049305611	0.14161705
